<svg width="177" height="68" viewBox="0 0 177 68" fill="none" xmlns="http://www.w3.org/2000/svg">
<path d="M31.9949 66.975C31.3523 66.975 30.7177 66.9521 30.1553 66.9089C28.1065 66.7376 26.0812 66.3644 24.1108 65.7953H24.0885C21.4131 64.9513 18.8538 63.7953 16.4672 62.353H16.4593C13.3057 60.2021 11.4976 57.6343 11.0719 54.7182C10.5384 51.0229 12.3596 47.6797 14.0179 45.4945C17.2635 56.5436 23.4407 62.147 32.3799 62.147C38.4638 62.147 42.8802 57.9953 42.8802 52.2763C42.8802 52.2534 42.934 49.7555 41.8565 47.3059C40.0353 43.1606 35.1643 40.4072 30.8661 37.9792C29.8149 37.3856 28.8255 36.8263 27.8794 36.2517C23.6746 33.7004 12.516 26.9225 12.0219 18.8136C11.8708 16.3322 12.7656 11.2742 20.4605 5.27417C20.517 5.23222 26.1817 0.991537 35.2168 0.278402C35.7819 0.23391 36.3771 0.211029 36.9855 0.211029C37.473 0.211029 37.9763 0.225012 38.4795 0.254249C41.8189 0.581288 45.0913 1.37648 48.194 2.61484C48.5186 2.76611 48.8405 2.92882 49.1493 3.09408C49.6289 5.42162 50.0691 7.77586 50.4752 10.0932C50.9298 12.7284 51.3411 15.4017 51.6972 18.0394L47.4923 19.0208C45.1271 11.6784 41.5793 4.89916 31.7952 4.89916C26.3144 4.89916 22.4867 8.78009 22.4867 14.3377C22.4867 20.447 26.5851 23.3631 35.1958 27.2301C44.8669 31.6907 50.5698 35.1038 53.0427 40.3538C54.3226 43.0818 54.3659 45.6407 54.387 46.8699V46.9309C54.4054 48.1093 54.2713 54.2593 49.8129 59.5818C47.4082 62.4521 44.1968 64.5292 40.2692 65.7546C37.5919 66.5685 34.8013 66.98 31.9949 66.975V66.975Z" fill="white"/>
<path d="M36.9961 0.261857C37.4822 0.261857 37.9842 0.27584 38.4809 0.303807C41.8103 0.634867 45.0724 1.43173 48.1652 2.66948C48.4818 2.81821 48.792 2.97329 49.085 3.13346C49.562 5.45084 50.0048 7.79491 50.399 10.1008C50.851 12.7169 51.2597 15.3699 51.6131 17.9885L47.5252 18.9432C45.16 11.5996 41.5899 4.83304 31.7834 4.83304C26.2645 4.83304 22.4092 8.74067 22.4092 14.3352C22.4092 20.4788 26.5194 23.4063 35.1551 27.2847C40.5965 29.7941 44.0405 31.6487 46.6698 33.4843C49.7801 35.6555 51.7813 37.8457 52.9705 40.3767C54.2451 43.0932 54.2845 45.6432 54.3095 46.8686V46.9284C54.3279 48.1042 54.1939 54.2339 49.7499 59.5385C47.3531 62.4 44.1522 64.4707 40.2377 65.6911C37.5671 66.5048 34.7831 66.9168 31.9831 66.9127C31.3419 66.9127 30.7098 66.8885 30.1527 66.8453C28.1084 66.6736 26.0876 66.3009 24.1214 65.733V65.733H24.1017C21.4288 64.8923 18.8717 63.7398 16.487 62.3008H16.4804C13.3465 60.1627 11.5463 57.6101 11.1284 54.7106C10.6028 51.0953 12.3544 47.8157 13.9838 45.6381C17.2478 56.6351 23.4341 62.2106 32.3721 62.2106C38.494 62.2106 42.938 58.0322 42.938 52.2801C42.9316 50.5649 42.5822 48.8672 41.9092 47.2805C40.0787 43.1161 35.1972 40.3576 30.8912 37.9233C29.84 37.3309 28.8518 36.7716 27.9057 36.197C23.7127 33.6546 12.5725 26.8868 12.0798 18.8097C11.9838 17.2385 12.3307 15.5758 13.1126 13.8686C14.4266 10.9919 16.9127 8.11652 20.4934 5.32499C20.5078 5.31355 21.9178 4.24829 24.4275 3.1055C27.832 1.56481 31.4932 0.623812 35.2392 0.326687C35.8029 0.282195 36.3956 0.259314 37.0026 0.259314L36.9961 0.261857ZM37.0026 0.132196C36.4416 0.132196 35.8437 0.151263 35.2287 0.199568C26.0661 0.922873 20.4369 5.20931 20.4369 5.20931C12.0417 11.7547 11.8669 17.0479 11.9733 18.8021C12.47 26.9441 23.6181 33.7131 27.8611 36.2898C32.8543 39.3203 39.5755 42.2212 41.8132 47.3148C42.4761 48.8855 42.8218 50.5645 42.8316 52.261C42.8316 58.3169 38.0604 62.0682 32.397 62.0682C21.9611 62.0682 16.7445 54.5682 14.0613 45.3381C12.6067 47.2296 10.4478 50.7216 11.0233 54.7131C11.4845 57.914 13.604 60.4627 16.4318 62.3911H16.4423C18.8372 63.8384 21.4058 64.9974 24.0912 65.8423H24.1082C26.0813 66.4123 28.1092 66.7862 30.1606 66.9584C30.4549 66.9813 31.1001 67.0258 32.0002 67.0258C35.8437 67.0258 44.3217 66.2262 49.8708 59.6046C54.4829 54.0991 54.4698 47.6707 54.4593 46.9131C54.4383 45.7004 54.4146 43.0996 53.1072 40.3106C50.6105 34.9894 44.6502 31.5013 35.2287 27.1563C26.8808 23.4063 22.5577 20.522 22.5577 14.3174C22.5577 8.54872 26.5825 4.94236 31.8005 4.94236C40.8934 4.94236 44.7698 10.7123 47.453 19.0767L51.7761 18.0674C51.4257 15.4733 51.0157 12.8038 50.5462 10.0589C50.1292 7.64702 49.685 5.30381 49.2138 3.02923C48.9036 2.86143 48.5738 2.69491 48.2256 2.5322C45.1206 1.28821 41.8451 0.487879 38.5019 0.156349C38.0512 0.130925 37.5453 0.113129 37.0039 0.113129L37.0026 0.132196Z" fill="black"/>
<path d="M69.7714 33.75C69.7714 52.3894 54.1518 67.5 34.8844 67.5C31.2232 67.5039 27.5842 66.9492 24.1016 65.8563C26.0746 66.4262 28.1026 66.8002 30.154 66.9724C31.7019 67.0995 43.0155 67.7936 49.8641 59.6186C54.4763 54.1131 54.4632 47.6847 54.4527 46.9271C54.4317 45.7144 54.408 43.1135 53.1006 40.3246C50.6039 35.0034 44.6436 31.5152 35.2221 27.1703C26.8742 23.4203 22.5511 20.536 22.5511 14.3313C22.5511 8.5627 26.5759 4.95634 31.7938 4.95634C40.8868 4.95634 44.7631 10.7263 47.4464 19.0907L51.7695 18.0813C51.4191 15.4873 51.0091 12.8178 50.5395 10.0729C50.1226 7.661 49.6784 5.31778 49.2071 3.04321C48.897 2.87541 48.5672 2.70888 48.219 2.54617C60.8703 7.61948 69.7714 19.6792 69.7714 33.75Z" fill="url(#paint0_linear_1_26)"/>
<path d="M42.825 52.2635C42.825 58.3195 38.0538 62.0707 32.3904 62.0707C21.9545 62.0707 16.7379 54.5707 14.0547 45.3407C12.6001 47.2322 10.4411 50.7241 11.0167 54.7157C11.4779 57.9165 13.5974 60.4652 16.4252 62.3936C11.3972 59.3626 7.25063 55.142 4.37678 50.1303C1.50292 45.1187 -0.00339415 39.4812 5.74263e-06 33.75C5.74263e-06 15.1106 15.6197 0 34.887 0C36.0926 0.000175389 37.2973 0.0595751 38.4966 0.177967C37.4067 0.113032 36.3135 0.121102 35.2247 0.20212C26.0621 0.925425 20.4329 5.21186 20.4329 5.21186C12.1126 11.7216 11.834 16.8521 11.9667 18.8047C12.5593 27.483 25.572 35.0021 28.9056 36.928C33.1236 39.3648 39.5951 42.2911 41.8066 47.3174C42.4696 48.888 42.8153 50.567 42.825 52.2635V52.2635Z" fill="url(#paint1_linear_1_26)"/>
<path d="M54.4526 46.9271C54.4316 45.7144 54.408 43.1135 53.1005 40.3246C50.6039 35.0034 44.6435 31.5152 35.2221 27.1703C26.8741 23.4203 22.551 20.536 22.551 14.3314C22.551 8.56271 26.5759 4.95635 31.7938 4.95635C40.8868 4.95635 44.7631 10.7263 47.4463 19.0907L51.7694 18.0813C51.419 15.4873 51.009 12.8178 50.5395 10.0729C50.1225 7.66101 49.6784 5.31779 49.2071 3.04322C48.897 2.87542 48.5672 2.70889 48.219 2.54618C48.0289 2.45635 47.8326 2.36779 47.6303 2.2805C46.4883 1.79013 45.3002 1.40701 44.0824 1.13644C43.6344 1.00932 43.1088 0.865677 42.5148 0.733474C41.9209 0.60127 41.2573 0.479234 40.5346 0.373726C40.5346 0.373726 39.7199 0.246609 38.494 0.170337C37.4041 0.105402 36.3108 0.113472 35.2221 0.19449C26.0595 0.917795 20.4302 5.20423 20.4302 5.20423C12.0455 11.7674 11.8497 17.0174 11.9667 18.8047C12.4923 27.0801 24.1016 34.0373 28.1829 36.483C32.9501 39.3394 39.5754 42.2479 41.8092 47.3174C42.4721 48.888 42.8178 50.567 42.8276 52.2635C42.8276 58.3195 38.0564 62.0707 32.393 62.0707C21.9571 62.0707 16.7405 54.5707 14.0573 45.3407C12.6027 47.2322 10.4437 50.7241 11.0193 54.7157C11.4805 57.9165 13.6 60.4652 16.4277 62.3936H16.4383C18.6984 63.933 21.4079 65.0771 24.0871 65.8449H24.1042C26.0772 66.4148 28.1052 66.7888 30.1565 66.961C31.7045 67.0881 43.0181 67.7822 49.8667 59.6072C54.4763 54.1131 54.4645 47.6847 54.4526 46.9271Z" fill="#FFD593"/>
<path d="M16.5644 37.4377C16.3016 38.419 14.1611 46.875 19.9953 54.0406C24.6049 59.7012 31.0987 60.7601 32.5743 60.9635C30.3011 60.4906 27.0489 59.4559 24.0004 57.0228C15.4449 50.2093 16.433 38.7241 16.5644 37.4377Z" fill="#FFD593"/>
<path d="M19.4408 39.7589C19.224 40.5572 17.4842 47.4419 22.2344 53.2754C25.9872 57.8835 31.2735 58.7415 32.4745 58.9118C30.6244 58.5305 27.9766 57.6839 25.4958 55.7072C18.5302 50.1572 19.3396 40.8063 19.4408 39.7589Z" fill="#FFD593"/>
<path d="M21.8429 41.2894C21.6602 41.9593 20.203 47.7254 24.1818 52.6119C27.3249 56.4724 31.7531 57.1881 32.7597 57.333C30.6171 56.9032 28.6124 55.9825 26.9136 54.6483C21.0781 49.9983 21.7522 42.1678 21.8429 41.2894Z" fill="#FFD593"/>
<path d="M86.5458 43.3115C89.7758 43.3115 91.9228 41.6965 91.9228 38.9795V38.9415C91.9228 36.4525 90.0228 35.4645 86.9638 34.7995C85.1208 34.3815 84.6648 34.1155 84.6648 33.5075V33.4695C84.6648 32.9945 85.1018 32.6145 85.9948 32.6145C87.1728 32.6145 88.5028 33.0705 89.7188 33.9255L91.5618 31.3225C90.1178 30.1635 88.3508 29.5555 86.0898 29.5555C82.8978 29.5555 80.9408 31.3415 80.9408 33.8115V33.8495C80.9408 36.5855 83.1258 37.3835 85.9568 38.0295C87.7618 38.4475 88.1988 38.7515 88.1988 39.3025V39.3405C88.1988 39.9105 87.6668 40.2525 86.6788 40.2525C85.1398 40.2525 83.6768 39.7015 82.3658 38.6565L80.3138 41.1075C81.9478 42.5705 84.1898 43.3115 86.5458 43.3115ZM93.7154 43.0835H97.4014V38.0295H102.132V43.0835H105.818V29.7835H102.132V34.7615H97.4014V29.7835H93.7154V43.0835ZM114.857 43.3495C118.961 43.3495 122.039 40.2525 122.039 36.4335V36.3955C122.039 32.5765 118.999 29.5175 114.895 29.5175C110.791 29.5175 107.713 32.6145 107.713 36.4335V36.4715C107.713 40.2905 110.753 43.3495 114.857 43.3495ZM114.895 40.0245C112.881 40.0245 111.494 38.3525 111.494 36.4335V36.3955C111.494 34.4765 112.843 32.8425 114.857 32.8425C116.89 32.8425 118.277 34.5145 118.277 36.4335V36.4715C118.277 38.3905 116.928 40.0245 114.895 40.0245ZM123.959 43.0835H127.645V39.2835H129.469C132.775 39.2835 135.188 37.6305 135.188 34.4955V34.4575C135.188 31.5125 133.022 29.7835 129.659 29.7835H123.959V43.0835ZM127.645 36.3955V32.8805H129.374C130.704 32.8805 131.502 33.4885 131.502 34.6285V34.6665C131.502 35.7115 130.704 36.3955 129.393 36.3955H127.645ZM143.432 43.3495C147.536 43.3495 150.614 40.2525 150.614 36.4335V36.3955C150.614 32.5765 147.574 29.5175 143.47 29.5175C139.366 29.5175 136.288 32.6145 136.288 36.4335V36.4715C136.288 40.2905 139.328 43.3495 143.432 43.3495ZM143.47 40.0245C141.456 40.0245 140.069 38.3525 140.069 36.4335V36.3955C140.069 34.4765 141.418 32.8425 143.432 32.8425C145.465 32.8425 146.852 34.5145 146.852 36.4335V36.4715C146.852 38.3905 145.503 40.0245 143.47 40.0245ZM152.534 43.0835H156.22V39.0555H157.797H157.835L160.514 43.0835H164.77L161.597 38.4475C163.25 37.7445 164.333 36.3955 164.333 34.3625V34.3245C164.333 33.0135 163.934 31.9875 163.155 31.2275C162.262 30.3155 160.856 29.7835 158.823 29.7835H152.534V43.0835ZM156.22 36.1675V32.9755H158.633C159.868 32.9755 160.628 33.5075 160.628 34.5525V34.5905C160.628 35.5595 159.906 36.1675 158.652 36.1675H156.22ZM166.19 43.0835H176.982V39.9485H169.838V37.8395H176.222V34.9325H169.838V32.9185H176.887V29.7835H166.19V43.0835Z" fill="#1B1464"/>
<defs>
<linearGradient id="paint0_linear_1_26" x1="22.5511" y1="35.0262" x2="69.7714" y2="35.0262" gradientUnits="userSpaceOnUse">
<stop stop-color="#CA7BFF"/>
<stop offset="1"/>
</linearGradient>
<linearGradient id="paint1_linear_1_26" x1="-0.00262228" y1="31.1962" x2="42.8263" y2="31.1962" gradientUnits="userSpaceOnUse">
<stop/>
<stop offset="0.47" stop-color="#19236E"/>
</linearGradient>
</defs>
</svg>
